<?xml version="1.0" ?><!DOCTYPE svg  PUBLIC '-//W3C//DTD SVG 1.1//EN'  'http://www.w3.org/Graphics/SVG/1.1/DTD/svg11.dtd'><svg enable-background="new 0 0 512 512" height="512px" id="Layer_1" version="1.1" viewBox="0 0 512 512" width="512px" xml:space="preserve" xmlns="http://www.w3.org/2000/svg" xmlns:xlink="http://www.w3.org/1999/xlink"><g><path clip-rule="evenodd" d="M256.23,512C396.81,512,512,396.81,512,256.23   C512,115.184,396.81,0,256.23,0C115.184,0,0,115.184,0,256.23C0,396.81,115.184,512,256.23,512L256.23,512z" fill="#7CB442" fill-rule="evenodd"/><path clip-rule="evenodd" d="M180.489,307.476c0,7.249-4.531,8.608-8.616,4.53   c-27.661-26.31-19.045-78.913-8.616-116.55c4.085-15.874-4.531-19.951-14.061-9.976c-26.755,28.567-40.808,58.501-37.637,100.216   c7.71,97.505,82.991,140.142,173.231,128.346c57.604-7.265,89.787-49.886,106.566-92.068c11.343-28.106,13.155-90.24,1.375-144.656   c-4.999-20.865-18.607-67.118-38.558-77.547c-23.576-12.248-72.556,8.617-92.053,23.576   C209.056,164.162,179.583,244.435,180.489,307.476L180.489,307.476z" fill="#FFFFFF" fill-rule="evenodd"/></g></svg>